# xmcd
#
# Track frame offsets: 
#        150
#        19789
#        35561
#        57223
#        78905
#        97137
#        116274
#        135971
#        153023
#        170044
#        184207
#        201096
#
# Disc length: 2923 seconds
#
# Revision: 5
# Processed by: cddbd v1.5.2PL0 Copyright (c) Steve Scherf et al.
# Submitted via: ExactAudioCopy v1.0b3
#
DISCID=940b690c
DTITLE=Toni Braxton - The Heat
DYEAR=2000
DGENRE=R&B
TTITLE0=He Wasn't Man Enough
TTITLE1=The Heat
TTITLE2=Spanish Guitar
TTITLE3=Just Be A Man About It
TTITLE4=Gimme Some
TTITLE5=I'm Still Breathing
TTITLE6=Fairy Tale
TTITLE7=The Art Of Love
TTITLE8=Speaking In Tongues
TTITLE9=Maybe
TTITLE10=You've Been Wrong
TTITLE11=Never Just For A Ring
EXTD=
EXTT0=
EXTT1=
EXTT2=
EXTT3=
EXTT4=
EXTT5=
EXTT6=
EXTT7=
EXTT8=
EXTT9=
EXTT10=
EXTT11=
PLAYORDER=
